<?xml version="1.0" encoding="UTF-8" standalone="no"?>
<!-- Created with Inkscape (http://www.inkscape.org/) -->

<svg
   width="193.57295mm"
   height="32.736061mm"
   viewBox="0 0 193.57295 32.736061"
   version="1.1"
   id="svg1"
   xml:space="preserve"
   xmlns="http://www.w3.org/2000/svg"
   xmlns:svg="http://www.w3.org/2000/svg"><defs
     id="defs1" /><g
     id="layer1"
     transform="translate(-8.2994229,-132.41289)"><path
       d="m 18.855109,165.14695 c 3.503197,0 6.407163,-1.01408 8.389236,-2.99615 1.982072,-1.98208 3.04225,-4.74776 3.04225,-8.61971 v -21.11138 h -7.282963 v 20.78871 c 0,3.73368 -1.613314,5.34699 -4.332902,5.34699 -2.25864,0 -4.056333,-1.19846 -5.900121,-3.22663 l -4.4711861,4.97823 c 2.2125451,2.6274 5.5313641,4.83994 10.5556861,4.83994 z m 51.60248,-0.002 h 24.568476 v -6.40478 H 77.510079 v -6.87229 H 92.72133 V 145.4631 H 77.510079 v -6.63854 h 17.285512 v -6.40479 H 70.457589 Z m 53.861071,0.002 c 6.9603,0 11.84634,-3.54598 11.84634,-9.86511 v -0.0909 c 0,-5.54628 -3.68758,-7.81935 -10.23303,-9.54687 -5.57746,-1.45477 -6.9603,-2.04577 -6.9603,-4.18245 v -0.0909 c 0,-1.59114 1.38284,-2.77313 4.14853,-2.77313 2.76568,0 5.48526,1.18199 8.38923,3.13683 l 3.68758,-5.27351 c -3.31882,-2.5913 -7.23687,-4.04606 -11.98463,-4.04606 -6.63763,0 -11.2932,3.81875 -11.2932,9.59234 v 0.0909 c 0,6.27366 4.14853,8.13758 10.69397,9.72872 5.39308,1.31838 6.49936,2.27307 6.49936,4.04606 v 0.0909 c 0,1.86391 -1.70551,3.00045 -4.65557,3.00045 -3.68757,0 -6.68373,-1.50022 -9.63379,-3.86421 l -4.19462,4.95529 c 3.87196,3.45505 8.75799,5.09166 13.69013,5.09166 z m 25.75508,0.001 h 6.26888 l 13.0448,-32.72828 h -7.65172 l -8.43533,22.88658 -8.43533,-22.88658 h -7.8361 z m 23.12773,0.001 h 7.00639 v -20.80649 l 15.6261,20.80649 h 6.03841 v -32.72931 h -7.00639 v 20.15191 l -15.11907,-20.15191 h -6.54544 z M 52.880028,132.41289 h -6.670056 l -13.879598,32.71728 h 8.14139 l 8.975146,-22.87889 8.975147,22.87889 h 8.337569 z"
       id="text1"
       style="font-weight:bold;font-size:46.0947px;font-family:gotham;-inkscape-font-specification:'gotham Bold';letter-spacing:-1.16417px;display:inline;stroke-width:0.480151"
       aria-label="JAE SVN" /></g></svg>
