<?xml version="1.0" encoding="UTF-8" standalone="no"?>
<!-- Created with Inkscape (http://www.inkscape.org/) -->

<svg
   width="116.07399mm"
   height="28.42312mm"
   viewBox="0 0 116.07399 28.42312"
   version="1.1"
   id="svg1"
   xml:space="preserve"
   xmlns="http://www.w3.org/2000/svg"
   xmlns:svg="http://www.w3.org/2000/svg"><defs
     id="defs1" /><g
     id="layer1"
     transform="translate(-46.717724,-134.46236)"><path
       style="font-weight:900;font-size:38.8294px;font-family:Montserrat;-inkscape-font-specification:'Montserrat Heavy';letter-spacing:16.1789px;stroke-width:0.404473"
       d="M 54.910727,156.79393 54.405945,146.27851 64.656906,134.4639 h 9.979156 l -11.493502,13.23561 -5.086652,5.44041 z m -8.193003,6.09001 V 134.4639 h 9.00842 v 28.42004 z m 17.861523,0 -7.998856,-11.04322 5.940898,-6.57721 12.658384,17.62043 z m 45.650393,-28.4183 h 9.16373 v 28.41656 h -9.16373 z m -8.46481,28.41656 h -9.163741 v -28.41656 h 9.163741 z m 9.08608,-10.47354 h -9.70735 v -7.87544 h 9.70735 z m 39.28242,10.47682 c -2.27799,0 -4.47832,-0.25886 -6.601,-0.77659 -2.12267,-0.51773 -3.86999,-1.19077 -5.24196,-2.01913 l 2.95103,-6.67866 c 1.29431,0.75071 2.731,1.35903 4.31006,1.82498 1.60495,0.44007 3.15813,0.6601 4.65953,0.6601 0.88013,0 1.56612,-0.0518 2.05796,-0.15531 0.51773,-0.12943 0.89308,-0.2977 1.12605,-0.50479 0.23298,-0.23297 0.34947,-0.50478 0.34947,-0.81541 0,-0.49184 -0.27181,-0.88013 -0.81542,-1.16488 -0.54361,-0.28475 -1.26843,-0.51773 -2.17445,-0.69893 -0.88013,-0.20709 -1.85087,-0.41418 -2.9122,-0.62127 -1.06134,-0.23298 -2.13562,-0.53067 -3.22284,-0.89308 -1.06134,-0.36241 -2.04502,-0.8413 -2.95104,-1.43669 -0.88013,-0.59538 -1.592,-1.37197 -2.13561,-2.32976 -0.54361,-0.98368 -0.81542,-2.20034 -0.81542,-3.64997 0,-1.68261 0.46595,-3.20989 1.39786,-4.58186 0.95779,-1.39786 2.36859,-2.51097 4.2324,-3.33933 1.8897,-0.82836 4.23241,-1.24254 7.02812,-1.24254 1.83793,0 3.64997,0.19415 5.43612,0.58244 1.78615,0.38829 3.3911,0.98368 4.81484,1.78615 l -2.75688,6.63983 c -1.34609,-0.67305 -2.65334,-1.17783 -3.92177,-1.51435 -1.24254,-0.33652 -2.4592,-0.50478 -3.64997,-0.50478 -0.88013,0 -1.57906,0.0777 -2.09678,0.23297 -0.51773,0.15532 -0.89308,0.36241 -1.12606,0.62127 -0.20709,0.25887 -0.31063,0.54362 -0.31063,0.85425 0,0.46595 0.27181,0.8413 0.81542,1.12605 0.54361,0.25887 1.25548,0.4789 2.13561,0.6601 0.90602,0.18121 1.8897,0.37535 2.95104,0.58244 1.08722,0.20709 2.1615,0.49184 3.22284,0.85425 1.06133,0.36241 2.03207,0.8413 2.9122,1.43669 0.90602,0.59539 1.63084,1.37197 2.17445,2.32976 0.54361,0.95779 0.81542,2.14856 0.81542,3.57231 0,1.65672 -0.4789,3.18401 -1.43669,4.58187 -0.93191,1.37197 -2.32977,2.48508 -4.19358,3.33933 -1.86381,0.82836 -4.20651,1.24254 -7.02812,1.24254 z"
       id="text1"
       aria-label="KHS" /></g></svg>
